<?xml version="1.0" encoding="UTF-8" standalone="no"?>
<svg
   xml:space="preserve"
   width="4.9219108in"
   height="1.3419999in"
   version="1.1"
   style="clip-rule:evenodd;fill-rule:evenodd;image-rendering:optimizeQuality;shape-rendering:geometricPrecision;text-rendering:geometricPrecision"
   viewBox="0 0 4921.9114 1342"
   id="svg31"
   sodipodi:docname="OCC_Chargy_Techblog_Logo1.svg"
   inkscape:version="1.1 (c68e22c387, 2021-05-23)"
   xmlns:inkscape="http://www.inkscape.org/namespaces/inkscape"
   xmlns:sodipodi="http://sodipodi.sourceforge.net/DTD/sodipodi-0.dtd"
   xmlns="http://www.w3.org/2000/svg"
   xmlns:svg="http://www.w3.org/2000/svg"
   xmlns:rdf="http://www.w3.org/1999/02/22-rdf-syntax-ns#"
   xmlns:cc="http://creativecommons.org/ns#"
   xmlns:dc="http://purl.org/dc/elements/1.1/"><metadata
   id="metadata35"><rdf:RDF><cc:Work
       rdf:about=""><dc:format>image/svg+xml</dc:format><dc:type
         rdf:resource="http://purl.org/dc/dcmitype/StillImage" /></cc:Work></rdf:RDF></metadata><sodipodi:namedview
   pagecolor="#ffffff"
   bordercolor="#666666"
   borderopacity="1"
   objecttolerance="10"
   gridtolerance="10"
   guidetolerance="10"
   inkscape:pageopacity="0"
   inkscape:pageshadow="2"
   inkscape:window-width="3840"
   inkscape:window-height="2054"
   id="namedview33"
   showgrid="false"
   inkscape:zoom="2.2766696"
   inkscape:cx="124.524"
   inkscape:cy="191.50781"
   inkscape:window-x="-11"
   inkscape:window-y="-11"
   inkscape:window-maximized="1"
   inkscape:current-layer="svg31"
   fit-margin-top="0.1"
   fit-margin-left="0.1"
   fit-margin-right="0.1"
   fit-margin-bottom="0.1"
   inkscape:document-rotation="0"
   showguides="true"
   inkscape:guide-bbox="true"
   inkscape:pagecheckerboard="0"
   inkscape:document-units="in" />
 <defs
   id="defs16">
  <style
   type="text/css"
   id="style2">
   <![CDATA[
    .fil0 {fill:none}
    .fil1 {fill:#030B12;fill-rule:nonzero}
    .fil2 {fill:url(#id0);fill-rule:nonzero}
    .fil3 {fill:url(#id1);fill-rule:nonzero}
   ]]>
  </style>
  <linearGradient
   id="id0"
   gradientUnits="userSpaceOnUse"
   x1="3060.6699"
   y1="5722.1899"
   x2="6926.8501"
   y2="5722.1899">
   <stop
   offset="0"
   style="stop-opacity:1; stop-color:#1FABF3"
   id="stop4" />
   <stop
   offset="1"
   style="stop-opacity:1; stop-color:#0AEFFF"
   id="stop6" />
  </linearGradient>
  <linearGradient
   id="id1"
   gradientUnits="userSpaceOnUse"
   x1="1573.15"
   y1="5500"
   x2="2664.9199"
   y2="5500">
   <stop
   offset="0"
   style="stop-opacity:1; stop-color:#2599F0"
   id="stop9" />
   <stop
   offset="0.45098"
   style="stop-opacity:1; stop-color:#16C4F6"
   id="stop11" />
   <stop
   offset="1"
   style="stop-opacity:1; stop-color:#06EFFD"
   id="stop13" />
  </linearGradient>
 
  
  
  
 </defs>
 <g
   id="_1796295528608"
   transform="translate(-1473,-4829)"
   style="fill:#ececec">
   
   
   <path
   class="fil3"
   d="m 2057,5891 c 1,0 2,0 3,0 13,3 27,5 41,7 14,1 28,2 43,2 v 0 c 64,1 126,-5 186,-20 60,-16 118,-39 173,-73 2,-1 4,-2 7,-2 5,0 10,5 10,11 0,4 -2,8 -6,10 -57,34 -117,58 -178,74 -62,16 -126,22 -192,21 v 0 c -15,0 -30,-1 -45,-2 -15,-2 -30,-4 -44,-7 -5,-1 -9,-5 -9,-11 0,-6 5,-10 11,-10 z m 518,-21 c -12,16 -26,32 -40,48 -2,2 -5,4 -8,4 -6,0 -11,-5 -11,-11 0,-3 2,-6 4,-8 12,-13 24,-28 36,-43 v 0 c 6,-9 13,-17 18,-26 6,-9 12,-18 17,-27 6,-10 7,-17 6,-21 0,-1 0,-1 0,-1 v 0 c 0,0 0,0 -1,0 -3,0 -8,2 -14,8 v 0 c -2,1 -5,3 -7,3 -6,0 -11,-5 -11,-11 0,-3 2,-6 4,-8 v 0 c 10,-9 20,-13 28,-13 6,0 11,2 15,5 v 0 c 3,3 6,8 7,13 2,9 0,21 -8,35 v 0 c -6,10 -12,19 -18,28 -6,9 -11,17 -17,25 z m -119,-711 c 6,0 11,5 11,11 0,4 -3,8 -6,9 v 0 c -9,6 -15,12 -18,19 -3,7 -3,14 -2,21 1,6 4,17 7,23 5,12 14,28 27,46 21,30 49,65 77,90 27,24 51,40 67,36 v 0 c 1,0 2,-1 4,-2 12,-9 18,-22 20,-38 v 0 c 2,-18 0,-40 -4,-63 -3,-19 -8,-39 -15,-59 v 0 c -7,-19 -16,-38 -28,-56 -12,-20 -27,-39 -45,-57 -17,-17 -36,-32 -58,-46 l -2,-2 c -45,-47 -96,-82 -153,-105 -59,-24 -124,-35 -194,-35 v 0 c -6,0 -11,-5 -11,-11 0,-6 5,-11 11,-11 v 0 c 72,1 140,12 202,37 59,24 113,60 159,110 23,14 43,30 61,48 19,19 35,40 48,61 12,20 22,40 29,60 v 0 c 8,21 14,43 17,63 4,25 6,48 4,68 v 0 c -3,22 -11,41 -29,54 -4,2 -7,3 -11,4 v 0 c -23,6 -55,-12 -86,-40 -29,-27 -59,-62 -81,-94 -13,-19 -23,-37 -29,-51 -3,-7 -6,-17 -8,-24 -2,-13 -1,-24 3,-35 5,-11 14,-21 27,-29 v 0 0 c 1,0 1,0 1,0 h 1 v 0 c 1,-1 3,-2 4,-2 z m -664,668 c 3,0 5,1 7,3 v 0 c 45,47 98,85 159,110 57,25 121,39 188,39 42,0 83,-5 121,-15 40,-11 77,-26 112,-45 2,-1 4,-2 6,-2 6,0 11,5 11,10 0,5 -3,8 -7,10 -36,20 -75,36 -117,47 -40,11 -82,16 -126,16 -70,0 -136,-14 -197,-40 -62,-27 -118,-66 -164,-115 h -1 v -1 0 c -1,-2 -2,-4 -2,-6 0,-6 4,-11 10,-11 z m 6,-679 c 6,0 11,5 11,11 0,3 -2,6 -4,8 -43,44 -78,96 -101,153 v 0 c -23,57 -36,118 -36,181 0,36 4,70 11,103 8,34 19,66 33,96 1,2 1,4 1,6 0,5 -5,10 -10,10 -5,0 -9,-3 -10,-7 -15,-32 -26,-66 -34,-101 -8,-34 -12,-70 -12,-107 0,-66 13,-130 38,-189 v 0 c 24,-59 60,-114 105,-160 2,-2 5,-4 8,-4 z m 107,-59 c -2,1 -4,2 -6,2 -6,0 -11,-5 -11,-11 0,-4 3,-8 7,-10 37,-22 77,-39 120,-50 42,-12 86,-18 131,-18 87,0 168,22 240,61 70,39 131,95 176,162 1,-1 3,-1 5,-1 10,0 19,4 26,11 v 0 c 6,6 10,15 10,25 0,10 -4,19 -10,26 v 0 c -7,6 -16,10 -26,10 -10,0 -19,-4 -25,-10 v 0 c -7,-7 -11,-16 -11,-26 0,-10 4,-19 11,-25 l 1,-1 c -43,-63 -100,-116 -168,-152 -68,-37 -146,-59 -229,-59 -43,0 -85,6 -125,17 -41,11 -80,28 -116,49 z m 678,156 v 0 c -4,-4 -10,-7 -16,-7 -6,0 -11,3 -15,7 -4,4 -7,9 -7,15 0,6 3,12 7,16 v 0 c 4,4 9,6 15,6 6,0 12,-2 16,-6 4,-4 6,-10 6,-16 0,-6 -2,-11 -6,-15 z m -802,86 c -2,4 -5,7 -10,7 -6,0 -11,-5 -11,-10 0,-2 1,-4 2,-6 34,-72 88,-134 155,-177 66,-42 143,-66 227,-66 30,0 60,4 89,11 25,6 51,16 74,27 7,-5 15,-8 23,-8 10,0 19,4 26,11 v 0 c 6,6 10,15 10,25 0,10 -4,19 -10,26 v 0 c -7,6 -16,10 -26,10 -10,0 -19,-4 -25,-10 v 0 c -7,-7 -11,-16 -11,-26 0,-3 1,-7 2,-10 -22,-10 -45,-19 -68,-25 -28,-6 -56,-10 -84,-10 -80,0 -153,23 -215,63 -64,41 -116,99 -148,168 z m 565,-201 v 0 c -4,-4 -10,-7 -16,-7 -6,0 -11,3 -15,7 -4,4 -7,9 -7,15 0,6 3,12 7,16 v 0 c 4,4 9,6 15,6 6,0 12,-2 16,-6 4,-4 6,-10 6,-16 0,-6 -2,-11 -6,-15 z m -752,370 v 0 c 0,6 -4,11 -10,11 -6,0 -11,-5 -11,-11 v 0 c 0,-116 34,-223 93,-313 59,-89 143,-162 242,-207 0,-1 0,-2 0,-3 0,-10 4,-19 10,-26 7,-6 16,-10 26,-10 10,0 19,4 25,10 v 0 c 7,7 11,16 11,26 0,10 -4,19 -11,25 v 0 c -6,7 -15,11 -25,11 -10,0 -19,-4 -26,-11 v 0 c 0,-1 -1,-1 -2,-2 -95,43 -175,113 -232,199 -57,86 -90,190 -90,301 z m 365,-539 v 0 c -4,-4 -9,-6 -15,-6 -6,0 -12,2 -16,6 -4,4 -6,10 -6,16 0,6 2,11 6,15 v 0 c 4,4 10,7 16,7 6,0 11,-3 15,-7 4,-4 7,-9 7,-15 0,-6 -3,-12 -7,-16 z m -368,618 c 5,0 10,5 10,10 19,115 73,217 151,296 78,80 180,135 294,156 6,0 10,5 10,10 0,6 -5,11 -11,11 -1,0 -2,0 -2,0 -119,-22 -225,-79 -306,-162 -81,-82 -137,-188 -156,-307 -1,-1 -1,-2 -1,-3 0,-6 5,-11 11,-11 z m 553,470 v 0 c 51,0 101,-7 147,-20 45,-12 88,-30 128,-53 0,-2 0,-4 0,-6 0,-10 4,-19 10,-25 7,-7 16,-11 26,-11 10,0 19,4 25,11 v 0 c 7,6 11,15 11,25 0,10 -4,19 -11,26 v 0 c -6,6 -15,10 -25,10 -10,0 -19,-4 -26,-10 v 0 c 0,-1 -1,-1 -1,-1 -41,23 -85,42 -131,55 -49,13 -100,20 -153,21 v 0 c -6,0 -11,-5 -11,-11 0,-6 5,-11 11,-11 z m 326,-94 v 0 c -4,-4 -9,-7 -15,-7 -6,0 -12,3 -16,7 -4,4 -6,9 -6,15 0,6 2,12 6,16 v 0 c 4,4 10,6 16,6 6,0 11,-2 15,-6 4,-4 7,-10 7,-16 0,-6 -3,-11 -7,-15 z m -535,-114 c 3,2 5,5 5,9 0,6 -4,11 -10,11 -2,0 -5,-1 -6,-2 -62,-38 -112,-91 -148,-153 -32,-58 -52,-125 -53,-196 -6,-2 -11,-5 -16,-9 v 0 c -6,-6 -10,-15 -10,-25 0,-10 4,-19 10,-26 7,-6 16,-10 26,-10 10,0 19,4 25,10 v 0 c 7,7 11,16 11,26 0,10 -4,19 -11,25 v 0 c -4,4 -9,7 -14,9 2,67 20,130 51,185 33,60 81,110 140,146 z m -187,-381 v 0 c -4,-4 -9,-6 -15,-6 -6,0 -12,2 -16,6 -4,4 -6,10 -6,16 0,6 2,11 6,15 v 0 c 4,4 10,7 16,7 6,0 11,-3 15,-7 4,-4 7,-9 7,-15 0,-6 -3,-12 -7,-16 z"
   id="path25"
   style="fill:#ececec" />
   
  </g>
<text
   xml:space="preserve"
   style="font-style:normal;font-weight:normal;font-size:332.84px;line-height:1.25;font-family:sans-serif;fill:#ececec;fill-opacity:0.847059;stroke:none;stroke-width:8.321"
   x="1379.0698"
   y="685.16998"
   id="text3495"
   transform="scale(1.0211027,0.97933342)"><tspan
     sodipodi:role="line"
     id="tspan3493"
     style="font-style:normal;font-variant:normal;font-weight:bold;font-stretch:normal;font-size:332.84px;font-family:Gadugi;-inkscape-font-specification:'Gadugi, Bold';font-variant-ligatures:normal;font-variant-caps:normal;font-variant-numeric:normal;font-variant-east-asian:normal;fill:#ececec;fill-opacity:0.847059;stroke-width:8.321"
     x="1379.0698"
     y="685.16998">Open Charging Cloud</tspan></text><text
   xml:space="preserve"
   style="font-style:normal;font-weight:normal;font-size:214.644px;line-height:1.25;font-family:sans-serif;clip-rule:evenodd;fill:#ececec;fill-opacity:0.847059;fill-rule:evenodd;stroke:none;stroke-width:5.3661;image-rendering:optimizeQuality;shape-rendering:geometricPrecision;text-rendering:geometricPrecision"
   x="1779.5902"
   y="960.59576"
   id="text3495-9"
   transform="scale(1.0211027,0.97933342)"><tspan
     sodipodi:role="line"
     id="tspan3493-0"
     style="font-style:normal;font-variant:normal;font-weight:bold;font-stretch:normal;font-size:214.644px;font-family:Gadugi;-inkscape-font-specification:'Gadugi, Bold';font-variant-ligatures:normal;font-variant-caps:normal;font-variant-numeric:normal;font-variant-east-asian:normal;fill:#ececec;fill-opacity:0.847059;stroke-width:5.3661"
     x="1779.5902"
     y="960.59576">Techblog</tspan></text></svg>
